<?xml version="1.0" encoding="UTF-8"?><svg id="Layer_1" xmlns="http://www.w3.org/2000/svg" viewBox="0 0 1590 480"><defs><style>.cls-1{fill:#f97fff;}.cls-1,.cls-2,.cls-3,.cls-4{stroke-width:0px;}.cls-5{stroke-miterlimit:10;stroke-width:2px;}.cls-5,.cls-6{fill:none;stroke:#000;}.cls-2{fill:#e55df5;}.cls-3{fill:#000;}.cls-4{fill:#212121;}.cls-6{stroke-width:2.74px;}</style></defs><polygon class="cls-2" points="101.5 9.5 1490 10.5 1491 470 101.5 470 101.5 9.5"/><path class="cls-2" d="M100.5,9.5c-9.36,12.83-23.73,28.26-45,38C27.25,60.44.45,57.1.5,58.5c.06,1.67,38.09,2.31,86,1,11.98-.33,21.96-.71,29-1"/><path class="cls-2" d="M102.29,470c-9.36-16.68-23.73-36.75-45-49.42-28.25-16.83-55.05-12.49-55-14.31.06-2.17,38.09-3.01,86-1.3,11.98.43,21.96.92,29,1.3"/><polygon class="cls-2" points=".5 59.12 2 406 37 407 106.46 407 106.46 53.98 .5 59.12"/><ellipse class="cls-4" cx="2.5" cy="79.5" rx="17.5" ry="10.5"/><ellipse class="cls-4" cx=".5" cy="109.5" rx="17.5" ry="10.5"/><ellipse class="cls-4" cx=".5" cy="139.5" rx="17.5" ry="10.5"/><ellipse class="cls-4" cx=".5" cy="169.5" rx="17.5" ry="10.5"/><ellipse class="cls-4" cx="2.5" cy="199.5" rx="17.5" ry="10.5"/><ellipse class="cls-4" cx=".5" cy="229.5" rx="17.5" ry="10.5"/><ellipse class="cls-4" cx=".5" cy="259.5" rx="17.5" ry="10.5"/><ellipse class="cls-4" cx="2.5" cy="289.5" rx="17.5" ry="10.5"/><ellipse class="cls-4" cx=".5" cy="319.5" rx="17.5" ry="10.5"/><ellipse class="cls-4" cx=".5" cy="349.5" rx="17.5" ry="10.5"/><ellipse class="cls-4" cx="2.5" cy="379.5" rx="17.5" ry="10.5"/><path class="cls-2" d="M1490.18,470.37c9.36-12.83,23.73-28.26,45-38,28.25-12.94,55.05-9.6,55-11-.06-1.67-38.09-2.31-86-1-11.98.33-21.96.71-29,1"/><path class="cls-2" d="M1488.39,9.87c9.36,16.68,23.73,36.75,45,49.42,28.25,16.83,55.05,12.49,55,14.31-.06,2.17-38.09,3.01-86,1.3-11.98-.43-21.96-.92-29-1.3"/><polygon class="cls-2" points="1590.18 420.75 1588.68 73.87 1553.68 72.87 1484.21 72.87 1484.21 425.89 1590.18 420.75"/><ellipse class="cls-4" cx="1588.18" cy="400.37" rx="17.5" ry="10.5"/><ellipse class="cls-4" cx="1590.18" cy="370.37" rx="17.5" ry="10.5"/><ellipse class="cls-4" cx="1590.18" cy="340.37" rx="17.5" ry="10.5"/><ellipse class="cls-4" cx="1590.18" cy="310.37" rx="17.5" ry="10.5"/><ellipse class="cls-4" cx="1588.18" cy="280.37" rx="17.5" ry="10.5"/><ellipse class="cls-4" cx="1590.18" cy="250.37" rx="17.5" ry="10.5"/><ellipse class="cls-4" cx="1590.18" cy="220.37" rx="17.5" ry="10.5"/><ellipse class="cls-4" cx="1588.18" cy="190.37" rx="17.5" ry="10.5"/><ellipse class="cls-4" cx="1590.18" cy="160.37" rx="17.5" ry="10.5"/><ellipse class="cls-4" cx="1590.18" cy="130.37" rx="17.5" ry="10.5"/><ellipse class="cls-4" cx="1588.18" cy="100.37" rx="17.5" ry="10.5"/><ellipse class="cls-2" cx="36.65" cy="90.86" rx="16.74" ry="9.73"/><ellipse class="cls-2" cx="34.74" cy="118.65" rx="16.74" ry="9.73"/><ellipse class="cls-2" cx="34.74" cy="146.45" rx="16.74" ry="9.73"/><ellipse class="cls-2" cx="34.74" cy="174.24" rx="16.74" ry="9.73"/><ellipse class="cls-2" cx="36.65" cy="202.04" rx="16.74" ry="9.73"/><ellipse class="cls-2" cx="34.74" cy="229.83" rx="16.74" ry="9.73"/><ellipse class="cls-2" cx="34.74" cy="257.63" rx="16.74" ry="9.73"/><ellipse class="cls-2" cx="36.65" cy="285.42" rx="16.74" ry="9.73"/><ellipse class="cls-2" cx="34.74" cy="313.22" rx="16.74" ry="9.73"/><ellipse class="cls-2" cx="34.74" cy="341.01" rx="16.74" ry="9.73"/><ellipse class="cls-2" cx="36.65" cy="368.81" rx="16.74" ry="9.73"/><ellipse class="cls-2" cx="1553.35" cy="388.14" rx="16.74" ry="9.73"/><ellipse class="cls-2" cx="1555.26" cy="360.35" rx="16.74" ry="9.73"/><ellipse class="cls-2" cx="1555.26" cy="332.55" rx="16.74" ry="9.73"/><ellipse class="cls-2" cx="1555.26" cy="304.76" rx="16.74" ry="9.73"/><ellipse class="cls-2" cx="1553.35" cy="276.96" rx="16.74" ry="9.73"/><ellipse class="cls-2" cx="1555.26" cy="249.17" rx="16.74" ry="9.73"/><ellipse class="cls-2" cx="1555.26" cy="221.37" rx="16.74" ry="9.73"/><ellipse class="cls-2" cx="1553.35" cy="193.58" rx="16.74" ry="9.73"/><ellipse class="cls-2" cx="1555.26" cy="165.78" rx="16.74" ry="9.73"/><ellipse class="cls-2" cx="1555.26" cy="137.99" rx="16.74" ry="9.73"/><ellipse class="cls-2" cx="1553.35" cy="110.19" rx="16.74" ry="9.73"/><ellipse class="cls-1" cx="525.5" cy="58.5" rx="391.5" ry="23.5"/><path class="cls-3" d="M199.61,425.79c-.43,0-.75-.13-.96-.4-.21-.27-.32-.57-.32-.9s.11-.63.32-.9c.21-.27.54-.4.96-.4h1.01c1.65,0,2.92-.4,3.81-1.21.89-.81.87-1.84-.05-3.1l-16.71-22.7-5.23,4.49v17.05c0,1.97.58,3.38,1.74,4.22,1.16.84,2.63,1.26,4.41,1.26h2.48c.43,0,.75.13.96.4.21.27.32.57.32.9s-.11.63-.32.9c-.22.27-.54.4-.96.4h-41.04c-.43,0-.75-.13-.96-.4-.21-.27-.32-.57-.32-.9s.11-.63.32-.9c.21-.27.54-.4.96-.4h6.06c1.77,0,3.23-.42,4.36-1.26,1.13-.84,1.7-2.24,1.7-4.22v-49.71c0-1.97-.57-3.39-1.7-4.26-1.13-.87-2.59-1.3-4.36-1.3h-6.06c-.43,0-.75-.13-.96-.4-.21-.27-.32-.55-.32-.85s.11-.58.32-.85c.21-.27.54-.4.96-.4h43.15c.43,0,.75.13.96.4.21.27.32.55.32.85s-.11.58-.32.85c-.21.27-.54.4-.96.4h-4.59c-1.78,0-3.25.43-4.41,1.3-1.16.87-1.74,2.29-1.74,4.26v29.79l22.13-18.84c1.59-1.31,2.77-2.8,3.54-4.44.76-1.64,1.06-3.51.87-5.61-.12-1.91-.83-3.47-2.11-4.67-1.29-1.2-3.49-1.79-6.61-1.79-.43,0-.75-.13-.96-.4-.22-.27-.32-.55-.32-.85s.11-.58.32-.85c.21-.27.54-.4.96-.4h36.82c.43,0,.73.13.92.4.18.27.28.55.28.85s-.09.58-.28.85c-.18.27-.49.4-.92.4h-1.47c-1.23,0-2.62.27-4.18.81-1.56.54-3.38,1.41-5.46,2.6-2.08,1.2-4.47,2.77-7.16,4.71-2.69,1.94-5.75,4.32-9.18,7.13l-6.98,5.74,21.39,29.52c2.33,3.23,4.91,5.74,7.76,7.54,2.85,1.79,5.8,2.69,8.86,2.69h2.3c.43,0,.75.13.96.4.21.27.32.57.32.9s-.11.63-.32.9c-.21.27-.54.4-.96.4h-43.34ZM177.67,423.63c-.43-.36-.77-.87-1.01-1.53-.25-.66-.43-1.38-.55-2.15h-12.03c-.37,1.5-1.04,2.72-2.02,3.68h15.61ZM162.15,362.18c.98.78,1.65,2.06,2.02,3.86h11.94c.18-1.67.67-2.96,1.47-3.86h-15.43ZM175.92,371.87v-4.22h-11.66v4.22h11.66ZM175.92,377.7v-4.22h-11.66v4.22h11.66ZM175.92,383.44v-4.13h-11.66v4.13h11.66ZM175.92,389.27v-4.22h-11.66v4.22h11.66ZM175.92,395.01v-4.13h-11.66v4.13h11.66ZM175.92,400.85v-4.13h-11.66v4.13h11.66ZM175.92,406.59v-4.04h-11.66v4.04h11.66ZM175.92,412.42v-4.04h-11.66v4.04h11.66ZM175.92,418.25v-4.13h-11.66v4.13h11.66ZM202.37,395.01l-3.03-4.13h-5.23l-4.77,4.13h13.04ZM206.68,400.85l-3.03-4.13h-13.13l3.03,4.13h13.13ZM210.91,406.59l-3.12-4.04h-12.95l3.03,4.04h13.04ZM215.22,412.42l-3.12-4.04h-12.95l2.94,4.04h13.13ZM219.45,418.25l-3.12-4.13h-12.85c.61.84,1.13,1.56,1.56,2.15.43.6.89,1.26,1.38,1.97h13.04ZM223.3,423.63l-2.66-3.68h-13.68c.31,1.56-.09,2.78-1.19,3.68h17.54ZM208.52,362.27c.49.48.87,1.03,1.15,1.66s.54,1.33.78,2.11h5.88c.55-.72,1.15-1.39,1.79-2.02.64-.63,1.27-1.21,1.88-1.75h-11.48ZM210.72,367.65c.06.66.08,1.32.05,1.97-.03.66-.11,1.32-.23,1.97h1.65c.37-.66.79-1.3,1.29-1.93.49-.63.98-1.3,1.47-2.02h-4.22Z"/><path class="cls-3" d="M322.28,423.46c.37,0,.64.12.83.36.18.24.28.51.28.81s-.09.57-.28.81c-.18.24-.49.36-.92.36h-42.6c-.49,0-.83-.13-1.01-.4s-.28-.55-.28-.85.12-.58.37-.85c.24-.27.58-.4,1.01-.4h5.33c.67,0,1.33-.09,1.97-.27.64-.18,1.15-.51,1.52-.99.37-.54.61-1.18.73-1.93.12-.75-.03-1.57-.46-2.47l-4.96-10.68h-23.96c-.18.84-.31,1.76-.37,2.78-.06,1.02-.05,2.05.05,3.1.09,1.05.28,2.09.55,3.14.28,1.05.63,1.96,1.06,2.74.55,1.02,1.09,1.83,1.61,2.42.52.6,1.15,1.06,1.88,1.39.73.33,1.61.54,2.62.63,1.01.09,2.22.13,3.63.13.37,0,.66.13.87.4.21.27.32.55.32.85s-.09.58-.28.85-.49.4-.92.4h-28.92c-.49,0-.87-.13-1.15-.4s-.41-.55-.41-.85.11-.58.32-.85c.22-.27.57-.4,1.06-.4,2.26,0,4.64-1.11,7.12-3.32,2.48-2.21,4.7-5.32,6.66-9.33l25.62-53.11c.55-1.14,1.13-1.14,1.74,0l28.74,58.77c.61,1.32,1.22,2.41,1.84,3.27.61.87,1.35,1.66,2.2,2.38,1.47,1.02,3.67,1.53,6.61,1.53ZM255.9,423.46c-.31-.9-.52-2.06-.64-3.5h-3.4c-.73.78-1.47,1.48-2.2,2.11-.73.63-1.44,1.09-2.11,1.39h8.36ZM256.08,414.12c-.55,1.26-1.5,2.63-2.85,4.13h2.02c.06-.6.14-1.26.23-1.97s.29-1.44.6-2.15ZM282.71,404.34l-10.74-22.79-10.93,22.79h21.67ZM287.48,383.44l-2.02-4.13h-12.3l1.84,4.13h12.49ZM284.54,377.7l-1.93-4.22h-6.89l-2.02,4.22h10.83ZM290.24,389.27l-2.02-4.22h-12.4l1.93,4.22h12.49ZM281.79,371.87l-2.66-5.65-2.57,5.65h5.23ZM292.99,395.01l-1.93-4.13h-12.58l1.93,4.13h12.58ZM295.84,400.85l-2.02-4.13h-12.58l1.93,4.13h12.67ZM298.69,406.59l-2.02-4.04h-12.76l1.93,4.04h12.85ZM301.44,412.42l-1.93-4.04h-12.95l1.93,4.04h12.95ZM304.38,418.25l-2.02-4.13h-13.04l1.19,2.42c.12.3.23.58.32.85.09.27.17.55.23.85h13.31ZM306.95,423.72l-1.84-3.77h-13.86c-.06.66-.21,1.29-.46,1.88-.25.6-.55,1.23-.92,1.88h17.08Z"/><path class="cls-3" d="M378.75,425.79l-14.05-31.67h-6.7v22.52c0,2.09.66,3.71,1.97,4.84,1.32,1.14,2.89,1.7,4.73,1.7h2.48c.43,0,.75.13.96.4.21.27.32.57.32.9s-.11.63-.32.9c-.22.27-.54.4-.96.4h-40.77c-.37,0-.66-.13-.87-.4-.21-.27-.32-.57-.32-.9s.11-.63.32-.9c.21-.27.51-.4.87-.4h5.69c1.77,0,3.29-.43,4.54-1.3,1.25-.87,1.88-2.44,1.88-4.71v-49.17c0-1.97-.57-3.39-1.7-4.26-1.13-.87-2.59-1.3-4.36-1.3h-6.43c-.43,0-.75-.13-.96-.4-.22-.27-.32-.55-.32-.85s.11-.58.32-.85c.21-.27.54-.4.96-.4h57.57c1.84,0,3.72.39,5.65,1.17,1.93.78,3.67,1.88,5.23,3.32s2.85,3.16,3.86,5.16c1.01,2,1.52,4.2,1.52,6.59s-.41,4.65-1.24,6.59c-.83,1.94-1.94,3.63-3.35,5.07-1.41,1.44-3.08,2.62-5,3.54-1.93.93-3.99,1.57-6.2,1.93l10.83,24.4c.79,1.74,1.7,3.08,2.71,4.04,1.01.96,2.4,1.44,4.18,1.44h3.03c.43,0,.75.13.96.4.21.27.32.57.32.9s-.11.63-.32.9c-.21.27-.54.4-.96.4h-26.08ZM353.77,423.63c-.98-.96-1.65-2.18-2.02-3.68h-11.39c-.25,1.38-.92,2.6-2.02,3.68h15.43ZM351.48,366.03v-3.86h-12.95c.98.78,1.62,2.06,1.93,3.86h11.02ZM351.48,371.87v-4.22h-10.83v4.22h10.83ZM351.48,377.7v-4.22h-10.83v4.22h10.83ZM351.48,383.44v-4.13h-10.83v4.13h10.83ZM351.48,389.27v-4.22h-10.83v4.22h10.83ZM351.48,395.01v-4.13h-10.83v4.13h10.83ZM351.48,400.85v-4.13h-10.83v4.13h10.83ZM351.48,406.59v-4.04h-10.83v4.04h10.83ZM351.48,412.42v-4.04h-10.83v4.04h10.83ZM351.48,418.25v-4.13h-10.83v4.13h10.83ZM378.2,376.71c0-2.39-.23-4.5-.69-6.33-.46-1.82-1.07-3.35-1.84-4.58-.77-1.23-1.65-2.14-2.66-2.74-1.01-.6-2.04-.9-3.08-.9h-11.94v29.61h6.34c2.14,0,4.07-.21,5.78-.63,1.71-.42,3.17-1.18,4.36-2.29,1.19-1.11,2.11-2.63,2.75-4.58.64-1.94.96-4.47.96-7.58ZM375.44,390.89c-2.27,1.79-5.14,2.81-8.63,3.05l.55,1.08h10.47l-1.1-2.24c2.08-.36,4.16-.99,6.24-1.88h-7.53ZM380.49,400.85l-1.93-4.13h-10.47l1.84,4.13h10.56ZM383.06,406.59l-1.84-4.04h-10.65l1.93,4.04h10.56ZM385.73,412.42l-1.93-4.04h-10.65l1.93,4.04h10.65ZM388.57,366.03c-1.04-1.2-2.27-2.14-3.67-2.83-1.41-.69-2.97-1.03-4.68-1.03h-4.96c1.29.9,2.3,2.18,3.03,3.86h10.28ZM388.39,418.25l-1.84-4.13h-10.83l1.84,4.13h10.83ZM379.39,385.05c-.31.84-.63,1.6-.96,2.29-.34.69-.75,1.33-1.24,1.93h9c.86-.54,1.65-1.15,2.39-1.84.73-.69,1.41-1.48,2.02-2.38h-11.2ZM390.78,423.63l-1.56-3.68h-10.93l1.65,3.68h10.83ZM391.97,371.87c-.49-1.55-1.16-2.96-2.02-4.22h-11.02c.31.66.51,1.33.6,2.02.09.69.2,1.42.32,2.2h12.12ZM380.22,379.31c0,.72-.03,1.42-.09,2.11-.06.69-.18,1.36-.37,2.02h11.75c.31-.66.55-1.3.73-1.93s.34-1.36.46-2.2h-12.49ZM392.8,377.7c0-.9-.03-1.67-.09-2.33-.06-.66-.18-1.29-.37-1.88h-12.21c.06.66.09,1.32.09,1.97v2.24h12.58Z"/><path class="cls-3" d="M465.24,425.79l-14.05-31.67h-6.7v22.52c0,2.09.66,3.71,1.97,4.84,1.32,1.14,2.89,1.7,4.73,1.7h2.48c.43,0,.75.13.96.4.21.27.32.57.32.9s-.11.63-.32.9c-.22.27-.54.4-.96.4h-40.77c-.37,0-.66-.13-.87-.4-.21-.27-.32-.57-.32-.9s.11-.63.32-.9c.21-.27.51-.4.87-.4h5.69c1.77,0,3.29-.43,4.54-1.3,1.25-.87,1.88-2.44,1.88-4.71v-49.17c0-1.97-.57-3.39-1.7-4.26-1.13-.87-2.59-1.3-4.36-1.3h-6.43c-.43,0-.75-.13-.96-.4-.22-.27-.32-.55-.32-.85s.11-.58.32-.85c.21-.27.54-.4.96-.4h57.57c1.84,0,3.72.39,5.65,1.17,1.93.78,3.67,1.88,5.23,3.32s2.85,3.16,3.86,5.16c1.01,2,1.52,4.2,1.52,6.59s-.41,4.65-1.24,6.59c-.83,1.94-1.94,3.63-3.35,5.07-1.41,1.44-3.08,2.62-5,3.54-1.93.93-3.99,1.57-6.2,1.93l10.83,24.4c.79,1.74,1.7,3.08,2.71,4.04,1.01.96,2.4,1.44,4.18,1.44h3.03c.43,0,.75.13.96.4.21.27.32.57.32.9s-.11.63-.32.9c-.21.27-.54.4-.96.4h-26.08ZM440.27,423.63c-.98-.96-1.65-2.18-2.02-3.68h-11.39c-.25,1.38-.92,2.6-2.02,3.68h15.43ZM437.97,366.03v-3.86h-12.95c.98.78,1.62,2.06,1.93,3.86h11.02ZM437.97,371.87v-4.22h-10.83v4.22h10.83ZM437.97,377.7v-4.22h-10.83v4.22h10.83ZM437.97,383.44v-4.13h-10.83v4.13h10.83ZM437.97,389.27v-4.22h-10.83v4.22h10.83ZM437.97,395.01v-4.13h-10.83v4.13h10.83ZM437.97,400.85v-4.13h-10.83v4.13h10.83ZM437.97,406.59v-4.04h-10.83v4.04h10.83ZM437.97,412.42v-4.04h-10.83v4.04h10.83ZM437.97,418.25v-4.13h-10.83v4.13h10.83ZM464.69,376.71c0-2.39-.23-4.5-.69-6.33-.46-1.82-1.07-3.35-1.84-4.58-.77-1.23-1.65-2.14-2.66-2.74-1.01-.6-2.04-.9-3.08-.9h-11.94v29.61h6.34c2.14,0,4.07-.21,5.78-.63,1.71-.42,3.17-1.18,4.36-2.29,1.19-1.11,2.11-2.63,2.75-4.58.64-1.94.96-4.47.96-7.58ZM461.94,390.89c-2.27,1.79-5.14,2.81-8.63,3.05l.55,1.08h10.47l-1.1-2.24c2.08-.36,4.16-.99,6.24-1.88h-7.53ZM466.99,400.85l-1.93-4.13h-10.47l1.84,4.13h10.56ZM469.56,406.59l-1.84-4.04h-10.65l1.93,4.04h10.56ZM472.22,412.42l-1.93-4.04h-10.65l1.93,4.04h10.65ZM475.07,366.03c-1.04-1.2-2.27-2.14-3.67-2.83-1.41-.69-2.97-1.03-4.68-1.03h-4.96c1.29.9,2.3,2.18,3.03,3.86h10.28ZM474.88,418.25l-1.84-4.13h-10.83l1.84,4.13h10.83ZM465.88,385.05c-.31.84-.63,1.6-.96,2.29-.34.69-.75,1.33-1.24,1.93h9c.86-.54,1.65-1.15,2.39-1.84.73-.69,1.41-1.48,2.02-2.38h-11.2ZM477.27,423.63l-1.56-3.68h-10.93l1.65,3.68h10.83ZM478.46,371.87c-.49-1.55-1.16-2.96-2.02-4.22h-11.02c.31.66.51,1.33.6,2.02.09.69.2,1.42.32,2.2h12.12ZM466.71,379.31c0,.72-.03,1.42-.09,2.11-.06.69-.18,1.36-.37,2.02h11.75c.31-.66.55-1.3.73-1.93s.34-1.36.46-2.2h-12.49ZM479.29,377.7c0-.9-.03-1.67-.09-2.33-.06-.66-.18-1.29-.37-1.88h-12.21c.06.66.09,1.32.09,1.97v2.24h12.58Z"/><path class="cls-3" d="M575.51,362.35c-1.9,0-3.6.55-5.1,1.66-1.5,1.11-2.75,2.57-3.76,4.4-1.01,1.83-1.78,3.96-2.3,6.42-.52,2.45-.78,5.02-.78,7.72v18.48c0,3.77-.58,7.3-1.74,10.59-1.16,3.29-2.89,6.15-5.19,8.57-2.3,2.42-5.17,4.32-8.63,5.7-3.46,1.38-7.48,2.06-12.07,2.06-3.86,0-7.44-.51-10.74-1.53-3.31-1.02-6.2-2.53-8.68-4.53-2.48-2-4.42-4.49-5.83-7.45-1.41-2.96-2.11-6.38-2.11-10.27v-36.16c0-1.97-.57-3.39-1.7-4.26-1.13-.87-2.59-1.3-4.36-1.3h-5.14c-.43,0-.75-.13-.96-.4-.21-.27-.32-.55-.32-.85s.11-.58.32-.85c.21-.27.54-.4.96-.4h43.15c.37,0,.66.13.87.4.21.27.32.55.32.85s-.11.58-.32.85c-.22.27-.5.4-.87.4h-4.87c-1.9,0-3.55.54-4.96,1.62-1.41,1.08-2.11,2.69-2.11,4.84v39.21c0,3.23.47,5.89,1.42,7.99.95,2.09,2.13,3.74,3.53,4.93,1.41,1.2,2.95,2.02,4.64,2.47,1.68.45,3.23.67,4.64.67,2.14,0,4.32-.52,6.52-1.57,2.2-1.05,4.21-2.53,6.01-4.44,1.8-1.91,3.27-4.22,4.41-6.91,1.13-2.69,1.7-5.68,1.7-8.97v-20.01c0-6.52-.96-11.47-2.89-14.85-1.93-3.38-4.73-5.07-8.4-5.07-.43,0-.77-.12-1.01-.36-.25-.24-.37-.52-.37-.85s.11-.61.32-.85c.21-.24.57-.36,1.06-.36h25.25c.43,0,.76.12,1.01.36.24.24.37.52.37.85s-.11.61-.32.85c-.21.24-.54.36-.96.36ZM508.58,362.18c.98.78,1.62,2.06,1.93,3.86h11.66c.12-.9.32-1.66.6-2.29.28-.63.6-1.15.96-1.57h-15.15ZM521.98,371.87v-4.22h-11.29v4.22h11.29ZM521.98,377.7v-4.22h-11.29v4.22h11.29ZM521.98,383.44v-4.13h-11.29v4.13h11.29ZM521.98,389.27v-4.22h-11.29v4.22h11.29ZM521.98,395.01v-4.13h-11.29v4.13h11.29ZM521.98,400.85v-4.13h-11.29v4.13h11.29ZM521.98,406.59v-4.04h-11.29v4.04h11.29ZM522.08,412.42l-.09-4.04h-10.93c.12.66.29,1.35.51,2.06.21.72.44,1.38.69,1.97h9.82ZM523.36,418.25c-.31-.54-.54-1.17-.69-1.88-.15-.72-.29-1.46-.41-2.24h-9.27c.37.72.79,1.44,1.29,2.15.49.72,1.01,1.38,1.56,1.97h7.53ZM530.16,425.16c-1.23-.66-2.34-1.39-3.35-2.2-1.01-.81-1.85-1.81-2.52-3.01h-6.7c3.37,2.99,7.56,4.73,12.58,5.2ZM556.78,362.18c.37.24.7.51,1.01.81.31.3.61.6.92.9h4.77c.12-.3.2-.6.23-.9.03-.3.11-.57.23-.81h-7.16ZM559.91,365.5c.92,1.56,1.65,3.65,2.2,6.28.12-1.02.26-2.06.41-3.14.15-1.08.32-2.12.5-3.14h-3.12Z"/><path class="cls-3" d="M650.71,406.05c0,4.25-.89,7.76-2.66,10.54-1.78,2.78-4.01,5.01-6.7,6.68-2.69,1.68-5.63,2.86-8.81,3.54-3.18.69-6.15,1.03-8.91,1.03s-5.36-.33-7.8-.99c-2.45-.66-4.76-1.53-6.93-2.6-2.17-1.08-4.21-2.27-6.11-3.59-1.9-1.31-3.64-2.63-5.23-3.95l-11.11,10.68c-.49.48-.83.66-1.01.54-.18-.12-.28-.48-.28-1.08v-26.2c0-.66.18-.96.55-.9.37.06.73.33,1.1.81,2.02,2.75,4.32,5.58,6.89,8.48,2.57,2.9,5.39,5.55,8.45,7.94,3.06,2.39,6.38,4.35,9.96,5.88,3.58,1.53,7.42,2.29,11.52,2.29,5.2,0,9.27-.94,12.21-2.83,2.94-1.88,4.41-4.17,4.41-6.86,0-3.05-1.44-5.4-4.32-7.04-2.88-1.64-6.95-2.83-12.21-3.54-2.51-.36-5.27-.69-8.26-.99-3-.3-6.15-.75-9.46-1.35-7.41-1.26-13.05-3.74-16.94-7.45-3.89-3.71-5.83-8.37-5.83-14,0-3.47.69-6.62,2.07-9.47,1.38-2.84,3.23-5.29,5.55-7.36,2.33-2.06,5.02-3.66,8.08-4.8,3.06-1.14,6.27-1.7,9.64-1.7,2.39,0,4.67.26,6.84.76,2.17.51,4.27,1.21,6.29,2.11,2.02.9,3.98,1.96,5.88,3.19,1.9,1.23,3.73,2.56,5.51,3.99l9.46-9.15c.49-.42.89-.52,1.19-.31.31.21.46.64.46,1.3v23.42c0,.66-.12,1-.37,1.03-.25.03-.55-.25-.92-.85-3.55-5.26-6.96-9.39-10.24-12.38-3.28-2.99-6.34-5.23-9.18-6.73-2.85-1.49-5.42-2.42-7.71-2.78-2.3-.36-4.27-.54-5.92-.54-1.78,0-3.6.19-5.46.58-1.87.39-3.58.99-5.14,1.79-1.56.81-2.85,1.84-3.86,3.1-1.01,1.26-1.52,2.72-1.52,4.4,0,1.08.23,2.06.69,2.96.46.9,1.29,1.74,2.48,2.51,1.19.78,2.83,1.52,4.91,2.24,2.08.72,4.71,1.41,7.9,2.06,1.65.36,3.44.7,5.37,1.03,1.93.33,3.89.67,5.88,1.03,1.99.36,3.95.73,5.88,1.12,1.93.39,3.69.76,5.28,1.12,2.75.72,5.28,1.63,7.57,2.74,2.3,1.11,4.24,2.51,5.83,4.22,1.59,1.7,2.83,3.74,3.72,6.1.89,2.36,1.33,5.1,1.33,8.21ZM615.27,389.27v-.18c-1.04-.24-2.07-.45-3.08-.63-1.01-.18-1.97-.36-2.89-.54-1.96-.42-3.8-.84-5.51-1.26-1.71-.42-3.28-.96-4.68-1.61h-13.59c-.31,0-.43.15-.37.45.06.3.2.67.41,1.12.21.45.47.91.78,1.39.31.48.55.9.73,1.26h28.19ZM595.71,383.44c-.92-.6-1.73-1.23-2.43-1.88-.7-.66-1.3-1.4-1.79-2.24h-6.34v2.96c0,.42.03.81.09,1.17h10.47ZM590.48,377.7c-.25-.72-.44-1.4-.6-2.06-.15-.66-.26-1.38-.32-2.15h-2.94c-.31.66-.57,1.32-.78,1.97-.22.66-.38,1.41-.5,2.24h5.14ZM593.51,417c-1.1-1.08-2.19-2.12-3.26-3.14-1.07-1.02-2.13-2.09-3.17-3.23v6.37h6.43ZM591.86,418.61h-4.77v4.85l4.77-4.85ZM590.02,368.01c-.31.36-.72.85-1.24,1.48-.52.63-1.03,1.42-1.51,2.38h2.2c0-.6.06-1.26.18-1.97.12-.72.24-1.35.37-1.88ZM638.87,395.01c-.92-.66-1.94-1.26-3.08-1.79-1.13-.54-2.37-.96-3.72-1.26-.86-.12-1.79-.27-2.8-.45-1.01-.18-2.13-.39-3.35-.63h-37.92c.61.78,1.24,1.51,1.88,2.2.64.69,1.39,1.33,2.25,1.93h46.74ZM643.73,400.85c-.43-.72-.89-1.44-1.38-2.15-.49-.72-1.04-1.38-1.65-1.97h-45.82c1.53.84,3.21,1.56,5.05,2.15,1.84.6,3.92,1.11,6.24,1.53.55.12,1.09.19,1.61.22.52.03,1.02.11,1.51.22h34.43ZM645.39,406.59c-.12-1.31-.46-2.66-1.01-4.04h-20.48v.18c2.81.48,5.33,1.03,7.53,1.66s4.07,1.36,5.6,2.2h8.36ZM639.33,370.25h-3.67c.67.6,1.3,1.18,1.88,1.75.58.57,1.18,1.09,1.79,1.57v-3.32ZM639.33,368.64v-3.32l-3.49,3.32h3.49ZM639.24,408.38c1.29,1.26,2.14,2.6,2.57,4.04h3.21c.18-.54.31-1.17.37-1.88.06-.72.09-1.44.09-2.15h-6.24ZM641.99,414.12c.06.3.09.75.09,1.35,0,.96-.15,1.94-.46,2.96.61-.66,1.18-1.33,1.7-2.02.52-.69.93-1.45,1.24-2.29h-2.57Z"/><path class="cls-3" d="M730.5,425.79h-70.7c-.43,0-.75-.13-.96-.4-.22-.27-.32-.57-.32-.9s.11-.63.32-.9c.21-.27.54-.4.96-.4h6.06c1.77,0,3.23-.42,4.36-1.26,1.13-.84,1.7-2.24,1.7-4.22v-49.71c0-1.97-.57-3.39-1.7-4.26-1.13-.87-2.59-1.3-4.36-1.3h-6.06c-.43,0-.75-.13-.96-.4-.22-.27-.32-.55-.32-.85s.11-.58.32-.85c.21-.27.54-.4.96-.4h70.06v22.25c0,1.02-.25,1.57-.73,1.66-.49.09-1.04-.34-1.65-1.3-1.29-2.09-2.86-4.34-4.73-6.73-1.87-2.39-3.92-4.59-6.15-6.59-2.24-2-4.58-3.68-7.02-5.02-2.45-1.35-4.87-2.02-7.25-2.02h-10.93v27.1h4.22c1.59,0,3.09-.33,4.5-.99,1.41-.66,2.72-1.53,3.95-2.6,1.22-1.08,2.33-2.29,3.31-3.63.98-1.35,1.84-2.68,2.57-3.99.24-.48.57-.7.96-.67.4.03.6.37.6,1.03v24.31c0,.66-.18,1-.55,1.03-.37.03-.7-.19-1.01-.67-.67-1.31-1.5-2.65-2.48-3.99-.98-1.35-2.08-2.56-3.31-3.63-1.23-1.08-2.56-1.96-3.99-2.65-1.44-.69-2.95-1.03-4.54-1.03h-4.22v31.85h9.92c2.51,0,5.1-.7,7.76-2.11,2.66-1.4,5.2-3.17,7.62-5.29,2.42-2.12,4.64-4.44,6.66-6.95s3.64-4.84,4.87-7c.61-1.08,1.15-1.57,1.61-1.48.46.09.69.64.69,1.66v23.33ZM684.87,423.63v-3.68h-11.02c-.37,1.5-1.04,2.72-2.02,3.68h13.04ZM684.87,366.03v-3.86h-12.95c.98.78,1.65,2.06,2.02,3.86h10.93ZM684.87,371.87v-4.22h-10.83v4.22h10.83ZM684.87,377.7v-4.22h-10.83v4.22h10.83ZM684.87,383.44v-4.13h-10.83v4.13h10.83ZM684.87,389.27v-4.22h-10.83v4.22h10.83ZM684.87,395.01v-4.13h-10.83v4.13h10.83ZM684.87,400.85v-4.13h-10.83v4.13h10.83ZM684.87,406.59v-4.04h-10.83v4.04h10.83ZM684.87,412.42v-4.04h-10.83v4.04h10.83ZM684.87,418.25v-4.13h-10.83v4.13h10.83ZM707.09,389.27v-4.22c-.43.66-.96,1.26-1.61,1.79-.64.54-1.27,1.02-1.88,1.44v.99h3.49ZM707.09,390.89h-3.49v1.97c.61.42,1.24.9,1.88,1.44.64.54,1.18,1.05,1.61,1.53v-4.93ZM723.34,423.63v-3.68h-7.8c-1.71,1.38-3.61,2.6-5.69,3.68h13.5ZM722.7,366.03v-3.77h-12.49c1.04.66,2.03,1.27,2.98,1.84.95.57,1.85,1.21,2.71,1.93h6.79ZM723.34,418.25v-5.74c-.98,1.08-1.94,2.09-2.89,3.05-.95.96-1.91,1.85-2.89,2.69h5.78ZM722.7,367.65h-4.77c.79.78,1.58,1.57,2.34,2.38.76.81,1.58,1.69,2.43,2.65v-5.02Z"/><path class="cls-3" d="M812.68,425.79h-70.98c-.43,0-.75-.13-.96-.4-.22-.27-.32-.57-.32-.9s.11-.63.32-.9c.21-.27.54-.4.96-.4h6.34c1.77,0,3.23-.42,4.36-1.26,1.13-.84,1.7-2.24,1.7-4.22v-49.71c0-1.97-.57-3.39-1.7-4.26-1.13-.87-2.59-1.3-4.36-1.3h-6.34c-.43,0-.75-.13-.96-.4-.22-.27-.32-.55-.32-.85s.11-.58.32-.85c.21-.27.54-.4.96-.4h44.99c.43,0,.75.13.96.4.21.27.32.55.32.85s-.11.58-.32.85c-.22.27-.54.4-.96.4h-6.34c-1.78,0-3.25.43-4.41,1.3-1.16.87-1.74,2.29-1.74,4.26v51.5c0,1.38.35,2.35,1.06,2.92.7.57,1.48.85,2.34.85h5.78c2.51,0,5.11-.69,7.8-2.06,2.69-1.38,5.25-3.1,7.67-5.16,2.42-2.06,4.64-4.34,6.66-6.82,2.02-2.48,3.64-4.8,4.87-6.95.61-1.08,1.15-1.57,1.61-1.48s.69.64.69,1.66v23.33ZM769.43,423.63c-.37-.36-.69-.87-.96-1.53-.28-.66-.51-1.38-.69-2.15h-11.84c-.31,1.5-.98,2.72-2.02,3.68h15.52ZM754.1,362.18c.98.78,1.62,2.06,1.93,3.86h11.75c.12-.9.34-1.66.64-2.29.31-.63.61-1.15.92-1.57h-15.24ZM767.69,371.87v-4.22h-11.48v4.22h11.48ZM767.69,377.7v-4.22h-11.48v4.22h11.48ZM767.69,383.44v-4.13h-11.48v4.13h11.48ZM767.69,389.27v-4.22h-11.48v4.22h11.48ZM767.69,395.01v-4.13h-11.48v4.13h11.48ZM767.69,400.85v-4.13h-11.48v4.13h11.48ZM767.69,406.59v-4.04h-11.48v4.04h11.48ZM767.69,412.42v-4.04h-11.48v4.04h11.48ZM767.69,418.25v-4.13h-11.48v4.13h11.48ZM805.52,423.63v-3.68h-7.8c-.86.66-1.76,1.3-2.71,1.93-.95.63-1.94,1.21-2.98,1.75h13.5ZM805.52,418.25v-5.74c-1.04,1.08-2.02,2.09-2.94,3.05-.92.96-1.84,1.85-2.75,2.69h5.69Z"/><path class="cls-3" d="M948.48,382.18c0,1.02-.25,1.57-.73,1.66-.49.09-1.04-.34-1.65-1.3-1.29-2.09-2.86-4.34-4.73-6.73-1.87-2.39-3.92-4.59-6.15-6.59-2.24-2-4.58-3.68-7.02-5.02-2.45-1.35-4.87-2.02-7.25-2.02h-10.83v27.1h4.22c1.53,0,3-.33,4.41-.99,1.41-.66,2.71-1.53,3.9-2.6s2.28-2.29,3.26-3.63c.98-1.35,1.8-2.68,2.48-3.99.37-.48.72-.7,1.06-.67.34.03.5.37.5,1.03v24.31c0,.66-.17,1-.5,1.03-.34.03-.69-.19-1.06-.67-.67-1.31-1.5-2.65-2.48-3.99-.98-1.35-2.07-2.56-3.26-3.63s-2.5-1.96-3.9-2.65c-1.41-.69-2.88-1.03-4.41-1.03h-4.22v25.93c0,1.97.57,3.38,1.7,4.22,1.13.84,2.58,1.26,4.36,1.26h6.43c.43,0,.73.13.92.4s.28.57.28.9-.09.63-.28.9-.49.4-.92.4h-44.81c-.43,0-.75-.13-.96-.4-.21-.27-.32-.57-.32-.9s.11-.63.32-.9c.21-.27.54-.4.96-.4h6.06c1.77,0,3.23-.42,4.36-1.26,1.13-.84,1.7-2.24,1.7-4.22v-49.71c0-1.97-.57-3.39-1.7-4.26-1.13-.87-2.59-1.3-4.36-1.3h-6.06c-.43,0-.75-.13-.96-.4-.21-.27-.32-.55-.32-.85s.11-.58.32-.85c.21-.27.54-.4.96-.4h70.7v22.25ZM905.32,423.63c-.43-.36-.78-.87-1.06-1.53-.28-.66-.48-1.38-.6-2.15h-11.84c-.37,1.5-1.04,2.72-2.02,3.68h15.52ZM903.49,366.03v-3.86h-13.59c.98.78,1.65,2.06,2.02,3.86h11.57ZM903.49,371.87v-4.22h-11.48v4.22h11.48ZM903.49,377.7v-4.22h-11.48v4.22h11.48ZM903.49,383.44v-4.13h-11.48v4.13h11.48ZM903.49,389.27v-4.22h-11.48v4.22h11.48ZM903.49,395.01v-4.13h-11.48v4.13h11.48ZM903.49,400.85v-4.13h-11.48v4.13h11.48ZM903.49,406.59v-4.04h-11.48v4.04h11.48ZM903.49,412.42v-4.04h-11.48v4.04h11.48ZM903.49,418.25v-4.13h-11.48v4.13h11.48ZM925.61,389.63v-4.58c-.43.66-.96,1.26-1.61,1.79-.64.54-1.27,1.02-1.88,1.44v1.35h3.49ZM925.61,391.33h-3.49v1.53c.61.42,1.24.9,1.88,1.44.64.54,1.18,1.05,1.61,1.53v-4.49ZM941.32,366.03v-3.77h-12.4c1.04.66,2.02,1.27,2.94,1.84.92.57,1.81,1.21,2.66,1.93h6.79ZM941.32,367.65h-4.77c.86.78,1.65,1.57,2.39,2.38s1.53,1.69,2.39,2.65v-5.02Z"/><path class="cls-3" d="M1027.9,425.79h-70.7c-.43,0-.75-.13-.96-.4-.21-.27-.32-.57-.32-.9s.11-.63.32-.9c.21-.27.54-.4.96-.4h6.06c1.77,0,3.23-.42,4.36-1.26,1.13-.84,1.7-2.24,1.7-4.22v-49.71c0-1.97-.57-3.39-1.7-4.26-1.13-.87-2.59-1.3-4.36-1.3h-6.06c-.43,0-.75-.13-.96-.4-.21-.27-.32-.55-.32-.85s.11-.58.32-.85c.21-.27.54-.4.96-.4h70.06v22.25c0,1.02-.25,1.57-.73,1.66-.49.09-1.04-.34-1.65-1.3-1.29-2.09-2.86-4.34-4.73-6.73-1.87-2.39-3.92-4.59-6.15-6.59-2.24-2-4.58-3.68-7.02-5.02s-4.87-2.02-7.25-2.02h-10.93v27.1h4.22c1.59,0,3.09-.33,4.5-.99,1.41-.66,2.72-1.53,3.95-2.6,1.22-1.08,2.33-2.29,3.31-3.63.98-1.35,1.84-2.68,2.57-3.99.24-.48.57-.7.96-.67.4.03.6.37.6,1.03v24.31c0,.66-.18,1-.55,1.03-.37.03-.71-.19-1.01-.67-.67-1.31-1.5-2.65-2.48-3.99-.98-1.35-2.08-2.56-3.31-3.63-1.23-1.08-2.56-1.96-3.99-2.65-1.44-.69-2.95-1.03-4.54-1.03h-4.22v31.85h9.92c2.51,0,5.1-.7,7.76-2.11,2.66-1.4,5.2-3.17,7.62-5.29,2.42-2.12,4.64-4.44,6.66-6.95,2.02-2.51,3.64-4.84,4.87-7,.61-1.08,1.15-1.57,1.61-1.48s.69.64.69,1.66v23.33ZM982.27,423.63v-3.68h-11.02c-.37,1.5-1.04,2.72-2.02,3.68h13.04ZM982.27,366.03v-3.86h-12.95c.98.78,1.65,2.06,2.02,3.86h10.93ZM982.27,371.87v-4.22h-10.83v4.22h10.83ZM982.27,377.7v-4.22h-10.83v4.22h10.83ZM982.27,383.44v-4.13h-10.83v4.13h10.83ZM982.27,389.27v-4.22h-10.83v4.22h10.83ZM982.27,395.01v-4.13h-10.83v4.13h10.83ZM982.27,400.85v-4.13h-10.83v4.13h10.83ZM982.27,406.59v-4.04h-10.83v4.04h10.83ZM982.27,412.42v-4.04h-10.83v4.04h10.83ZM982.27,418.25v-4.13h-10.83v4.13h10.83ZM1004.49,389.27v-4.22c-.43.66-.96,1.26-1.61,1.79-.64.54-1.27,1.02-1.88,1.44v.99h3.49ZM1004.49,390.89h-3.49v1.97c.61.42,1.24.9,1.88,1.44.64.54,1.18,1.05,1.61,1.53v-4.93ZM1020.74,423.63v-3.68h-7.8c-1.71,1.38-3.61,2.6-5.69,3.68h13.5ZM1020.1,366.03v-3.77h-12.49c1.04.66,2.03,1.27,2.98,1.84.95.57,1.85,1.21,2.71,1.93h6.79ZM1020.74,418.25v-5.74c-.98,1.08-1.94,2.09-2.89,3.05-.95.96-1.91,1.85-2.89,2.69h5.79ZM1020.1,367.65h-4.78c.79.78,1.58,1.57,2.34,2.38.76.81,1.58,1.69,2.43,2.65v-5.02Z"/><path class="cls-3" d="M1106.86,406.05c0,4.25-.89,7.76-2.66,10.54-1.78,2.78-4.01,5.01-6.7,6.68-2.69,1.68-5.63,2.86-8.81,3.54-3.18.69-6.15,1.03-8.91,1.03s-5.36-.33-7.8-.99c-2.45-.66-4.76-1.53-6.93-2.6-2.17-1.08-4.21-2.27-6.11-3.59-1.9-1.31-3.64-2.63-5.23-3.95l-11.11,10.68c-.49.48-.83.66-1.01.54-.18-.12-.28-.48-.28-1.08v-26.2c0-.66.18-.96.55-.9.37.06.73.33,1.1.81,2.02,2.75,4.32,5.58,6.89,8.48,2.57,2.9,5.39,5.55,8.45,7.94,3.06,2.39,6.38,4.35,9.96,5.88s7.42,2.29,11.52,2.29c5.2,0,9.27-.94,12.21-2.83,2.94-1.88,4.41-4.17,4.41-6.86,0-3.05-1.44-5.4-4.32-7.04-2.88-1.64-6.95-2.83-12.21-3.54-2.51-.36-5.26-.69-8.26-.99-3-.3-6.15-.75-9.46-1.35-7.41-1.26-13.05-3.74-16.94-7.45-3.89-3.71-5.83-8.37-5.83-14,0-3.47.69-6.62,2.07-9.47,1.38-2.84,3.23-5.29,5.55-7.36,2.33-2.06,5.02-3.66,8.08-4.8,3.06-1.14,6.27-1.7,9.64-1.7,2.39,0,4.67.26,6.84.76,2.17.51,4.27,1.21,6.29,2.11,2.02.9,3.98,1.96,5.88,3.19,1.9,1.23,3.73,2.56,5.51,3.99l9.46-9.15c.49-.42.89-.52,1.19-.31.31.21.46.64.46,1.3v23.42c0,.66-.12,1-.37,1.03-.25.03-.55-.25-.92-.85-3.55-5.26-6.96-9.39-10.24-12.38-3.28-2.99-6.33-5.23-9.18-6.73-2.85-1.49-5.42-2.42-7.71-2.78-2.29-.36-4.27-.54-5.92-.54-1.78,0-3.6.19-5.46.58-1.87.39-3.58.99-5.14,1.79-1.56.81-2.85,1.84-3.86,3.1-1.01,1.26-1.51,2.72-1.51,4.4,0,1.08.23,2.06.69,2.96.46.9,1.29,1.74,2.48,2.51,1.19.78,2.83,1.52,4.91,2.24,2.08.72,4.71,1.41,7.9,2.06,1.65.36,3.44.7,5.37,1.03,1.93.33,3.89.67,5.88,1.03,1.99.36,3.95.73,5.88,1.12,1.93.39,3.69.76,5.28,1.12,2.75.72,5.28,1.63,7.58,2.74,2.3,1.11,4.24,2.51,5.83,4.22,1.59,1.7,2.83,3.74,3.72,6.1.89,2.36,1.33,5.1,1.33,8.21ZM1071.42,389.27v-.18c-1.04-.24-2.07-.45-3.08-.63-1.01-.18-1.97-.36-2.89-.54-1.96-.42-3.8-.84-5.51-1.26-1.71-.42-3.28-.96-4.68-1.61h-13.59c-.31,0-.43.15-.37.45.06.3.2.67.41,1.12.21.45.47.91.78,1.39.31.48.55.9.73,1.26h28.19ZM1051.86,383.44c-.92-.6-1.73-1.23-2.43-1.88-.71-.66-1.3-1.4-1.79-2.24h-6.33v2.96c0,.42.03.81.09,1.17h10.47ZM1046.63,377.7c-.25-.72-.44-1.4-.6-2.06-.15-.66-.26-1.38-.32-2.15h-2.94c-.31.66-.57,1.32-.78,1.97-.21.66-.38,1.41-.5,2.24h5.14ZM1049.66,417c-1.1-1.08-2.19-2.12-3.26-3.14-1.07-1.02-2.13-2.09-3.17-3.23v6.37h6.43ZM1048.01,418.61h-4.77v4.85l4.77-4.85ZM1046.17,368.01c-.31.36-.72.85-1.24,1.48-.52.63-1.03,1.42-1.52,2.38h2.2c0-.6.06-1.26.18-1.97.12-.72.24-1.35.37-1.88ZM1095.02,395.01c-.92-.66-1.94-1.26-3.08-1.79-1.13-.54-2.37-.96-3.72-1.26-.86-.12-1.79-.27-2.8-.45-1.01-.18-2.13-.39-3.35-.63h-37.92c.61.78,1.24,1.51,1.88,2.2.64.69,1.39,1.33,2.25,1.93h46.74ZM1099.89,400.85c-.43-.72-.89-1.44-1.38-2.15-.49-.72-1.04-1.38-1.65-1.97h-45.82c1.53.84,3.21,1.56,5.05,2.15,1.84.6,3.92,1.11,6.24,1.53.55.12,1.09.19,1.61.22.52.03,1.02.11,1.52.22h34.43ZM1101.54,406.59c-.12-1.31-.46-2.66-1.01-4.04h-20.48v.18c2.82.48,5.33,1.03,7.53,1.66,2.2.63,4.07,1.36,5.6,2.2h8.36ZM1095.48,370.25h-3.67c.67.6,1.3,1.18,1.88,1.75.58.57,1.18,1.09,1.79,1.57v-3.32ZM1095.48,368.64v-3.32l-3.49,3.32h3.49ZM1095.39,408.38c1.29,1.26,2.14,2.6,2.57,4.04h3.21c.18-.54.31-1.17.37-1.88.06-.72.09-1.44.09-2.15h-6.24ZM1098.14,414.12c.06.3.09.75.09,1.35,0,.96-.15,1.94-.46,2.96.61-.66,1.18-1.33,1.7-2.02.52-.69.93-1.45,1.24-2.29h-2.57Z"/><path class="cls-3" d="M1185.83,388.73c0,.84-.26,1.24-.78,1.21-.52-.03-1-.49-1.42-1.39-1.29-2.93-2.66-5.8-4.13-8.61-1.47-2.81-3.03-5.38-4.68-7.72-1.65-2.33-3.4-4.37-5.23-6.1-1.84-1.73-3.8-2.99-5.88-3.77h-3.58v55.36c0,1.97.57,3.38,1.7,4.22,1.13.84,2.59,1.26,4.36,1.26h6.43c.43,0,.73.13.92.4s.28.57.28.9-.09.63-.28.9-.49.4-.92.4h-43.8c-.43,0-.75-.13-.96-.4-.21-.27-.32-.57-.32-.9s.11-.63.32-.9c.21-.27.54-.4.96-.4h5.69c1.77,0,3.24-.42,4.41-1.26,1.16-.84,1.74-2.24,1.74-4.22v-55.36h-3.58c-2.02.78-3.95,2.03-5.78,3.77-1.84,1.74-3.58,3.77-5.23,6.1-1.65,2.33-3.21,4.91-4.68,7.72-1.47,2.81-2.85,5.68-4.13,8.61-.43.96-.9,1.44-1.42,1.44s-.78-.42-.78-1.26v-28.8h70.79v28.8ZM1116.87,362.18v3.86h5.97c.55-.72,1.12-1.38,1.7-1.97.58-.6,1.18-1.23,1.79-1.88h-9.46ZM1116.87,367.65v7.09c1.35-2.45,2.91-4.81,4.68-7.09h-4.68ZM1155.34,423.63c-.43-.36-.78-.87-1.06-1.53-.28-.66-.48-1.38-.6-2.15h-11.2c-.37,1.5-1.01,2.72-1.93,3.68h14.78ZM1153.51,366.03v-3.68h-10.83v3.68h10.83ZM1153.51,371.87v-4.22h-10.83v4.22h10.83ZM1153.51,377.7v-4.22h-10.83v4.22h10.83ZM1153.51,383.44v-4.13h-10.83v4.13h10.83ZM1153.51,389.27v-4.22h-10.83v4.22h10.83ZM1153.51,395.01v-4.13h-10.83v4.13h10.83ZM1153.51,400.85v-4.13h-10.83v4.13h10.83ZM1153.51,406.59v-4.04h-10.83v4.04h10.83ZM1153.51,412.42v-4.04h-10.83v4.04h10.83ZM1153.51,418.25v-4.13h-10.83v4.13h10.83ZM1179.22,366.03v-3.86h-11.29c.67.54,1.38,1.12,2.11,1.75.74.63,1.5,1.33,2.3,2.11h6.89ZM1179.22,367.65h-5.33c.86,1.08,1.75,2.24,2.66,3.5.92,1.26,1.8,2.63,2.66,4.13v-7.63Z"/><path class="cls-3" d="M1194.55,425.79c-.43,0-.75-.13-.96-.4-.22-.27-.32-.57-.32-.9s.11-.63.32-.9c.21-.27.54-.4.96-.4h6.43c1.77,0,3.23-.42,4.36-1.26,1.13-.84,1.7-2.24,1.7-4.22v-49.71c0-1.97-.57-3.39-1.7-4.26-1.13-.87-2.59-1.3-4.36-1.3h-6.43c-.43,0-.75-.13-.96-.4-.22-.27-.32-.55-.32-.85s.11-.58.32-.85c.21-.27.54-.4.96-.4h44.44c.43,0,.75.13.96.4.21.27.32.55.32.85s-.11.58-.32.85c-.21.27-.54.4-.96.4h-6.43c-1.78,0-3.23.43-4.36,1.3-1.13.87-1.7,2.29-1.7,4.26v49.71c0,1.97.57,3.38,1.7,4.22,1.13.84,2.59,1.26,4.36,1.26h6.43c.43,0,.75.13.96.4.21.27.32.57.32.9s-.11.63-.32.9c-.21.27-.54.4-.96.4h-44.44ZM1221.73,423.63c-.43-.36-.77-.87-1.01-1.53-.25-.66-.46-1.38-.64-2.15h-11.2c-.31,1.5-.98,2.72-2.02,3.68h14.88ZM1207.04,362.18c.98.78,1.62,2.06,1.93,3.86h11.11c.24-1.73.76-3.02,1.56-3.86h-14.6ZM1219.98,371.87v-4.22h-10.83v4.22h10.83ZM1219.98,377.7v-4.22h-10.83v4.22h10.83ZM1219.98,383.44v-4.13h-10.83v4.13h10.83ZM1219.98,389.27v-4.22h-10.83v4.22h10.83ZM1219.98,395.01v-4.13h-10.83v4.13h10.83ZM1219.98,400.85v-4.13h-10.83v4.13h10.83ZM1219.98,406.59v-4.04h-10.83v4.04h10.83ZM1219.98,412.42v-4.04h-10.83v4.04h10.83ZM1219.98,418.25v-4.13h-10.83v4.13h10.83Z"/><path class="cls-3" d="M1321.72,362.35c-.92,0-1.97.37-3.17,1.12-1.19.75-2.42,1.75-3.67,3.01-1.25,1.26-2.49,2.74-3.72,4.44-1.22,1.71-2.29,3.54-3.21,5.52l-24.7,51.32c-.18.42-.45.64-.78.67-.34.03-.63-.17-.87-.58l-27.36-57.69c-1.04-2.09-2.31-3.93-3.81-5.52-1.5-1.58-3.32-2.38-5.46-2.38h-3.4c-.37,0-.64-.12-.83-.36-.18-.24-.28-.51-.28-.81s.11-.57.32-.81c.22-.24.5-.36.87-.36h43.06c.49,0,.84.12,1.06.36.21.24.32.52.32.85s-.14.61-.41.85c-.28.24-.63.36-1.06.36h-5.05c-1.59,0-2.74.76-3.44,2.29-.7,1.53-.54,3.42.5,5.7l15.61,33.74,11.02-23.06c.61-1.2,1.02-2.44,1.24-3.72.21-1.29.31-2.54.28-3.77-.03-1.23-.2-2.38-.5-3.45-.31-1.08-.67-2-1.1-2.78-.55-.96-1.1-1.76-1.65-2.42-.55-.66-1.18-1.17-1.88-1.52-.71-.36-1.55-.61-2.53-.76-.98-.15-2.17-.22-3.58-.22-.37,0-.66-.12-.87-.36-.21-.24-.34-.52-.37-.85-.03-.33.05-.61.23-.85.18-.24.52-.36,1.01-.36h28.1c.49,0,.86.12,1.1.36.24.24.37.52.37.85s-.12.61-.37.85c-.25.24-.58.36-1.01.36ZM1267.82,366.12c-.25-1.44-.25-2.75,0-3.95h-17.17c1.22.96,2.39,2.27,3.49,3.95h13.68ZM1269.84,371.95l-.46-1.17c-.18-.48-.38-.99-.6-1.53-.21-.54-.38-1.05-.5-1.53h-13.22c.12.18.23.39.32.63.09.24.2.48.32.72l1.38,2.87h12.76ZM1272.5,377.79l-1.84-4.22h-12.76l1.93,4.22h12.67ZM1275.26,383.44l-1.84-4.04h-12.85l2.02,4.04h12.67ZM1278.1,389.27l-2.02-4.22h-12.76l2.02,4.22h12.76ZM1280.86,395.1l-2.02-4.13h-12.67l1.93,4.13h12.76ZM1283.52,400.93l-1.93-4.13h-12.58l1.93,4.13h12.58ZM1286.18,406.77l-1.93-4.13h-12.49l1.93,4.13h12.49ZM1288.57,411.79l-1.65-3.32h-12.4l1.93,4.04h11.66l.46-.72ZM1287.38,414.3h-10.19l2.02,4.04h6.15l2.02-4.04ZM1284.44,420.05h-4.5l2.29,4.76,2.2-4.76ZM1301.52,362.18c.67.54,1.32,1.23,1.93,2.06h6.33c.18-.42.35-.79.5-1.12.15-.33.35-.64.6-.94h-9.37ZM1304.55,365.94c.31.66.58,1.32.83,1.97.24.66.43,1.23.55,1.7h2.02c.18-1.2.58-2.42,1.19-3.68h-4.59Z"/><path class="cls-3" d="M1384.43,423.46c.37,0,.64.12.83.36.18.24.28.51.28.81s-.09.57-.28.81c-.18.24-.49.36-.92.36h-42.6c-.49,0-.83-.13-1.01-.4s-.28-.55-.28-.85.12-.58.37-.85c.24-.27.58-.4,1.01-.4h5.33c.67,0,1.33-.09,1.97-.27.64-.18,1.15-.51,1.51-.99.37-.54.61-1.18.73-1.93.12-.75-.03-1.57-.46-2.47l-4.96-10.68h-23.96c-.18.84-.31,1.76-.37,2.78-.06,1.02-.05,2.05.05,3.1.09,1.05.28,2.09.55,3.14.28,1.05.63,1.96,1.06,2.74.55,1.02,1.09,1.83,1.61,2.42.52.6,1.15,1.06,1.88,1.39.73.33,1.61.54,2.62.63,1.01.09,2.22.13,3.63.13.37,0,.66.13.87.4.21.27.32.55.32.85s-.09.58-.28.85-.49.4-.92.4h-28.92c-.49,0-.87-.13-1.15-.4s-.41-.55-.41-.85.11-.58.32-.85c.22-.27.57-.4,1.06-.4,2.26,0,4.64-1.11,7.12-3.32,2.48-2.21,4.7-5.32,6.66-9.33l25.62-53.11c.55-1.14,1.13-1.14,1.75,0l28.74,58.77c.61,1.32,1.22,2.41,1.84,3.27.61.87,1.35,1.66,2.2,2.38,1.47,1.02,3.67,1.53,6.61,1.53ZM1318.04,423.46c-.31-.9-.52-2.06-.64-3.5h-3.4c-.73.78-1.47,1.48-2.2,2.11-.74.63-1.44,1.09-2.11,1.39h8.36ZM1318.23,414.12c-.55,1.26-1.5,2.63-2.85,4.13h2.02c.06-.6.14-1.26.23-1.97s.29-1.44.6-2.15ZM1344.86,404.34l-10.74-22.79-10.93,22.79h21.67ZM1349.63,383.44l-2.02-4.13h-12.3l1.84,4.13h12.49ZM1346.69,377.7l-1.93-4.22h-6.89l-2.02,4.22h10.83ZM1352.38,389.27l-2.02-4.22h-12.4l1.93,4.22h12.49ZM1343.94,371.87l-2.66-5.65-2.57,5.65h5.23ZM1355.14,395.01l-1.93-4.13h-12.58l1.93,4.13h12.58ZM1357.99,400.85l-2.02-4.13h-12.58l1.93,4.13h12.67ZM1360.83,406.59l-2.02-4.04h-12.76l1.93,4.04h12.85ZM1363.59,412.42l-1.93-4.04h-12.95l1.93,4.04h12.95ZM1366.53,418.25l-2.02-4.13h-13.04l1.19,2.42c.12.3.23.58.32.85.09.27.17.55.23.85h13.31ZM1369.1,423.72l-1.84-3.77h-13.86c-.06.66-.22,1.29-.46,1.88-.25.6-.55,1.23-.92,1.88h17.08Z"/><path class="cls-3" d="M1458.99,425.79h-70.98c-.43,0-.75-.13-.96-.4-.21-.27-.32-.57-.32-.9s.11-.63.32-.9c.21-.27.54-.4.96-.4h6.34c1.77,0,3.23-.42,4.36-1.26,1.13-.84,1.7-2.24,1.7-4.22v-49.71c0-1.97-.57-3.39-1.7-4.26-1.13-.87-2.59-1.3-4.36-1.3h-6.34c-.43,0-.75-.13-.96-.4-.21-.27-.32-.55-.32-.85s.11-.58.32-.85c.21-.27.54-.4.96-.4h44.99c.43,0,.75.13.96.4.21.27.32.55.32.85s-.11.58-.32.85c-.21.27-.54.4-.96.4h-6.33c-1.78,0-3.25.43-4.41,1.3-1.16.87-1.75,2.29-1.75,4.26v51.5c0,1.38.35,2.35,1.06,2.92.7.57,1.48.85,2.34.85h5.78c2.51,0,5.11-.69,7.8-2.06,2.69-1.38,5.25-3.1,7.67-5.16,2.42-2.06,4.64-4.34,6.66-6.82,2.02-2.48,3.64-4.8,4.87-6.95.61-1.08,1.15-1.57,1.61-1.48s.69.64.69,1.66v23.33ZM1415.74,423.63c-.37-.36-.69-.87-.96-1.53-.28-.66-.5-1.38-.69-2.15h-11.84c-.31,1.5-.98,2.72-2.02,3.68h15.52ZM1400.41,362.18c.98.78,1.62,2.06,1.93,3.86h11.75c.12-.9.33-1.66.64-2.29.31-.63.61-1.15.92-1.57h-15.24ZM1414,371.87v-4.22h-11.48v4.22h11.48ZM1414,377.7v-4.22h-11.48v4.22h11.48ZM1414,383.44v-4.13h-11.48v4.13h11.48ZM1414,389.27v-4.22h-11.48v4.22h11.48ZM1414,395.01v-4.13h-11.48v4.13h11.48ZM1414,400.85v-4.13h-11.48v4.13h11.48ZM1414,406.59v-4.04h-11.48v4.04h11.48ZM1414,412.42v-4.04h-11.48v4.04h11.48ZM1414,418.25v-4.13h-11.48v4.13h11.48ZM1451.82,423.63v-3.68h-7.8c-.86.66-1.76,1.3-2.71,1.93-.95.63-1.94,1.21-2.98,1.75h13.5ZM1451.82,418.25v-5.74c-1.04,1.08-2.02,2.09-2.94,3.05-.92.96-1.84,1.85-2.75,2.69h5.69Z"/><path class="cls-3" d="M171.83,79.16h-12.67v-1.38c0-1.5.36-2.82,1.05-3.96.69-1.11,2.12-2.52,4.27-4.17,1.13-.87,1.93-1.56,2.34-2.07.41-.51.74-1.02.94-1.59.19-.54.3-1.14.3-1.8,0-.9-.33-1.68-.99-2.34-.69-.66-1.49-.99-2.4-.99-.99,0-2.4.36-4.21,1.11l-1.18-2.52c1.98-.9,3.8-1.35,5.48-1.35,1.96,0,3.53.54,4.74,1.65,1.18,1.11,1.79,2.58,1.79,4.41,0,1.32-.44,2.64-1.35,3.93-.91,1.32-2.42,2.79-4.6,4.38-1.73,1.29-2.73,2.55-3.03,3.84h9.53v2.85Z"/><path class="cls-3" d="M188.36,79.16h-12.67v-1.38c0-1.5.36-2.82,1.05-3.96.69-1.11,2.12-2.52,4.27-4.17,1.13-.87,1.93-1.56,2.34-2.07.41-.51.74-1.02.94-1.59.19-.54.3-1.14.3-1.8,0-.9-.33-1.68-.99-2.34-.69-.66-1.49-.99-2.4-.99-.99,0-2.4.36-4.21,1.11l-1.18-2.52c1.98-.9,3.8-1.35,5.48-1.35,1.96,0,3.53.54,4.74,1.65,1.18,1.11,1.79,2.58,1.79,4.41,0,1.32-.44,2.64-1.35,3.93-.91,1.32-2.42,2.79-4.6,4.38-1.73,1.29-2.73,2.55-3.03,3.84h9.53v2.85Z"/><path class="cls-3" d="M203.95,58.1l-8.01,21.45h-2.48l7.99-21.45h2.51Z"/><path class="cls-3" d="M219.73,77.93c-1.18,1.08-2.84,1.62-4.9,1.62-1.96,0-3.53-.54-4.74-1.65-1.21-1.11-1.82-2.55-1.82-4.38s1.02-3.51,3.03-4.89l.74-.51-.22-.12c-2.09-1.14-3.08-2.79-3.08-4.74,0-1.5.55-2.73,1.68-3.72,1.13-.96,2.59-1.44,4.43-1.44s3.25.45,4.38,1.38,1.68,2.1,1.68,3.51c0,1.77-1.07,3.3-3.25,4.65l-.28.21.69.42c2.31,1.41,3.42,3.21,3.42,5.16s-.58,3.45-1.76,4.5ZM215.19,70.19l-.63-.39-.69.48c-1.51,1.05-2.29,2.13-2.29,3.24,0,.99.3,1.77.94,2.34s1.4.87,2.34.87,1.76-.3,2.34-.87c.58-.57.85-1.35.85-2.34,0-1.05-.96-2.16-2.86-3.33ZM216.87,61.55c-.58-.45-1.27-.66-2.07-.66s-1.46.21-1.98.66c-.52.45-.77,1.02-.77,1.77,0,.9.94,1.89,2.81,3,1.93-1.29,2.89-2.28,2.89-3.03,0-.69-.3-1.29-.88-1.74Z"/><path class="cls-3" d="M252.95,69.77h-9.09v-2.4h9.09v2.4Z"/><path class="cls-3" d="M287.52,79.16h-12.67v-1.38c0-1.5.36-2.82,1.05-3.96.69-1.11,2.12-2.52,4.27-4.17,1.13-.87,1.93-1.56,2.34-2.07.41-.51.74-1.02.94-1.59.19-.54.3-1.14.3-1.8,0-.9-.33-1.68-.99-2.34-.69-.66-1.49-.99-2.4-.99-.99,0-2.4.36-4.21,1.11l-1.18-2.52c1.98-.9,3.8-1.35,5.48-1.35,1.96,0,3.53.54,4.74,1.65,1.18,1.11,1.79,2.58,1.79,4.41,0,1.32-.44,2.64-1.35,3.93-.91,1.32-2.42,2.79-4.6,4.38-1.73,1.29-2.73,2.55-3.03,3.84h9.53v2.85Z"/><path class="cls-3" d="M305.06,74.84h-2.84v4.32h-3.19v-4.32h-8.35v-2.46l8.21-13.89h3.33v13.35h2.84v3ZM299.03,71.87v-9.03l-5.34,9.03h5.34Z"/><path class="cls-3" d="M319.64,58.1l-8.01,21.45h-2.48l7.99-21.45h2.51Z"/><path class="cls-3" d="M335.42,77.93c-1.18,1.08-2.84,1.62-4.9,1.62-1.96,0-3.53-.54-4.74-1.65-1.21-1.11-1.82-2.55-1.82-4.38s1.02-3.51,3.03-4.89l.74-.51-.22-.12c-2.09-1.14-3.08-2.79-3.08-4.74,0-1.5.55-2.73,1.68-3.72,1.13-.96,2.59-1.44,4.43-1.44s3.25.45,4.38,1.38,1.68,2.1,1.68,3.51c0,1.77-1.07,3.3-3.25,4.65l-.28.21.69.42c2.31,1.41,3.42,3.21,3.42,5.16s-.58,3.45-1.76,4.5ZM330.88,70.19l-.63-.39-.69.48c-1.51,1.05-2.29,2.13-2.29,3.24,0,.99.3,1.77.94,2.34s1.4.87,2.34.87,1.76-.3,2.34-.87c.58-.57.85-1.35.85-2.34,0-1.05-.96-2.16-2.86-3.33ZM332.56,61.55c-.58-.45-1.27-.66-2.07-.66s-1.46.21-1.98.66c-.52.45-.77,1.02-.77,1.77,0,.9.94,1.89,2.81,3,1.93-1.29,2.89-2.28,2.89-3.03,0-.69-.3-1.29-.88-1.74Z"/><path class="cls-3" d="M368.64,69.77h-9.09v-2.4h9.09v2.4Z"/><path class="cls-3" d="M403.21,79.16h-12.67v-1.38c0-1.5.36-2.82,1.05-3.96.69-1.11,2.12-2.52,4.27-4.17,1.13-.87,1.93-1.56,2.34-2.07.41-.51.74-1.02.94-1.59.19-.54.3-1.14.3-1.8,0-.9-.33-1.68-.99-2.34-.69-.66-1.49-.99-2.4-.99-.99,0-2.4.36-4.21,1.11l-1.18-2.52c1.98-.9,3.8-1.35,5.48-1.35,1.96,0,3.53.54,4.74,1.65,1.18,1.11,1.79,2.58,1.79,4.41,0,1.32-.44,2.64-1.35,3.93-.91,1.32-2.42,2.79-4.6,4.38-1.73,1.29-2.73,2.55-3.03,3.84h9.53v2.85Z"/><path class="cls-3" d="M418.63,76.67c-1.16,1.92-2.78,2.88-4.85,2.88s-3.69-.96-4.85-2.88c-1.16-1.89-1.74-4.5-1.74-7.83s.58-6.06,1.71-7.95c1.13-1.86,2.75-2.79,4.87-2.79s3.75.93,4.88,2.79c1.13,1.89,1.71,4.53,1.71,7.95s-.58,5.94-1.74,7.83ZM416.29,62.78c-.52-1.14-1.38-1.71-2.51-1.71s-1.96.57-2.48,1.71-.8,3.15-.8,6.06.28,4.86.8,6c.52,1.17,1.35,1.74,2.48,1.74s1.98-.57,2.51-1.71c.52-1.14.77-3.15.77-6.03s-.25-4.92-.77-6.06Z"/><path class="cls-3" d="M436.26,79.16h-12.67v-1.38c0-1.5.36-2.82,1.05-3.96.69-1.11,2.12-2.52,4.27-4.17,1.13-.87,1.93-1.56,2.34-2.07.41-.51.74-1.02.94-1.59.19-.54.3-1.14.3-1.8,0-.9-.33-1.68-.99-2.34-.69-.66-1.49-.99-2.4-.99-.99,0-2.4.36-4.21,1.11l-1.18-2.52c1.98-.9,3.8-1.35,5.48-1.35,1.96,0,3.53.54,4.74,1.65,1.18,1.11,1.79,2.58,1.79,4.41,0,1.32-.44,2.64-1.35,3.93-.91,1.32-2.42,2.79-4.6,4.38-1.73,1.29-2.73,2.55-3.03,3.84h9.53v2.85Z"/><path class="cls-3" d="M453.81,74.84h-2.84v4.32h-3.19v-4.32h-8.35v-2.46l8.21-13.89h3.33v13.35h2.84v3ZM447.78,71.87v-9.03l-5.34,9.03h5.34Z"/><path class="cls-3" d="M1263.1,79.21h-3.63l-5.34-8.76h-1.98v8.76h-3.17v-20.67h4.71c2.07,0,3.75.51,5.04,1.5,1.27.99,1.9,2.37,1.9,4.11,0,2.25-1.18,4.02-3.58,5.31l6.06,9.75ZM1256.19,62.14c-.74-.51-1.6-.78-2.62-.78h-1.43v6.27h1.32c1.07,0,1.98-.33,2.73-.96.74-.63,1.1-1.47,1.1-2.49,0-.84-.36-1.53-1.1-2.04Z"/><path class="cls-3" d="M1276.71,79.21h-11.02v-20.67h10.93v2.97h-7.77v5.16h7.46v2.82h-7.46v6.75h7.85v2.97Z"/><path class="cls-3" d="M1293.87,61.51h-7.99v5.58h7.02v2.82h-7.02v9.3h-3.17v-20.67h11.16v2.97Z"/><path class="cls-3" d="M1308.96,77.92c-1.32,1.11-3.06,1.68-5.23,1.68-1.18,0-2.18-.12-2.97-.33-.83-.21-1.65-.57-2.48-1.08l1.05-2.97c1.46,1.05,2.89,1.56,4.3,1.56,1.24,0,2.23-.27,3-.81.77-.54,1.16-1.29,1.16-2.28,0-.57-.25-1.14-.72-1.68-.5-.54-1.4-1.17-2.7-1.86l-2.09-1.11c-1.46-.78-2.48-1.59-3.06-2.46-.61-.87-.91-1.86-.91-3.03,0-1.62.61-2.94,1.82-3.93,1.21-.99,2.81-1.47,4.79-1.47,1.51,0,3.3.3,5.37.9l-1.07,2.94c-.58-.27-1.32-.51-2.18-.72-.88-.21-1.57-.3-2.09-.3-1.07,0-1.9.21-2.51.66-.63.45-.94,1.05-.94,1.83,0,.48.19.93.55,1.35.36.45,1.05.93,2.07,1.5l1.82.99c1.54.84,2.59,1.56,3.19,2.13.61.57,1.05,1.17,1.35,1.8.3.63.44,1.35.44,2.1,0,1.95-.66,3.48-1.96,4.59Z"/><path class="cls-3" d="M1327.09,79.21h-3.17v-10.11h-5.67v10.11h-3.17v-20.67h3.17v7.74h5.67v-7.74h3.17v20.67Z"/><path class="cls-3" d="M1334.78,73l-1.6,6.21h-3.28l6.09-20.67h3.28l5.98,20.67h-3.2l-1.62-6.21h-5.65ZM1339.68,70.18l-2.06-7.95-2.09,7.95h4.16Z"/><path class="cls-3" d="M1359.48,79.21h-10.36v-20.67h3.17v17.85h7.19v2.82Z"/><path class="cls-3" d="M1375.87,79.21h-11.02v-20.67h10.93v2.97h-7.77v5.16h7.46v2.82h-7.46v6.75h7.85v2.97Z"/><path class="cls-3" d="M1391.96,76.78c-1.16,1.92-2.78,2.88-4.85,2.88-1.07,0-2.01-.27-2.84-.78-.03,0-.3.69-.85,2.04h-3l1.76-4.26c-1.1-1.89-1.65-4.47-1.65-7.77s.58-6.12,1.71-8.01c1.13-1.86,2.75-2.79,4.88-2.79.99,0,1.82.18,2.48.54l.77-1.92h3.03l-1.6,3.87c1.27,1.83,1.9,4.62,1.9,8.31,0,3.33-.58,5.97-1.73,7.89ZM1388.43,61.39c-.41-.21-.85-.3-1.32-.3-1.18,0-2.01.54-2.51,1.65-.52,1.11-.77,3.15-.77,6.15,0,1.2.05,2.31.17,3.3l4.43-10.8ZM1390.11,64.66l-4.71,11.4c.44.39,1.02.6,1.71.6,1.18,0,2.01-.54,2.53-1.65.5-1.11.74-3.15.74-6.12,0-1.83-.08-3.24-.28-4.23Z"/><path class="cls-3" d="M1408.93,79.21h-11.02v-20.67h10.93v2.97h-7.77v5.16h7.46v2.82h-7.46v6.75h7.85v2.97Z"/><path class="cls-3" d="M1426.53,79.21h-3.03l-5.92-13.05-.85-2.37.3,4.77v10.65h-3.06v-20.67h3.11l6.14,13.56.61,1.86-.36-4.02v-11.4h3.06v20.67Z"/><rect class="cls-5" x="122" y="24" width="1353" height="432"/><path class="cls-6" d="M990,125l-200.71,128.15-203.29-128.15h404Z"/><path class="cls-6" d="M990,154.43l-200.71,128.15-203.29-128.15h404Z"/><path class="cls-6" d="M990,183.85l-200.71,128.15-203.29-128.15h404Z"/><ellipse class="cls-1" cx="73.5" cy="60.5" rx="45.5" ry="11.5" transform="translate(-15.95 27.94) rotate(-19.46)"/><ellipse class="cls-1" cx="1523.07" cy="78.95" rx="11.5" ry="45.5" transform="translate(820.67 1432.68) rotate(-65.54)"/></svg>